<svg width="58" height="58" viewBox="0 0 58 58" fill="none" xmlns="http://www.w3.org/2000/svg">
<path d="M49.4696 26.3445C50.4121 26.3445 51.1612 25.5712 51.1612 24.6046V22.478C51.1612 12.9807 48.2613 10.105 38.7882 10.105H23.5636H17.4255C7.95242 10.105 5.05249 13.0049 5.05249 22.478V23.5171C5.05249 24.4837 5.80164 25.2329 6.74411 25.2329C8.77406 25.2329 10.3932 26.8762 10.3932 28.882C10.3932 30.8877 8.77406 32.5552 6.74411 32.5552C5.80164 32.5552 5.05249 33.3043 5.05249 34.271V35.3101C5.05249 44.8074 7.95242 47.6831 17.4255 47.6831H23.5394H38.764C48.2371 47.6831 51.1371 44.7832 51.1371 35.3101C51.1371 34.3676 50.3879 33.5943 49.4454 33.5943C47.4155 33.5943 45.7964 31.9752 45.7964 29.9694C45.8205 27.9636 47.4397 26.3445 49.4696 26.3445ZM25.2552 40.095C25.2552 41.0375 24.4819 41.8108 23.5394 41.8108C22.597 41.8108 21.8237 41.0375 21.8237 40.095V33.6185C21.8237 32.676 22.597 31.9027 23.5394 31.9027C24.4819 31.9027 25.2552 32.676 25.2552 33.6185V40.095ZM25.2552 24.1696C25.2552 25.1121 24.4819 25.8854 23.5394 25.8854C22.597 25.8854 21.8237 25.1121 21.8237 24.1696V17.6931C21.8237 16.7506 22.597 15.9773 23.5394 15.9773C24.4819 15.9773 25.2552 16.7506 25.2552 17.6931V24.1696Z" fill="white"/>
</svg>
